<svg xmlns="http://www.w3.org/2000/svg" version="1.1" xmlns:xlink="http://www.w3.org/1999/xlink" xmlns:svgjs="http://svgjs.dev/svgjs" width="1440" height="560" preserveAspectRatio="none" viewBox="0 0 1440 560"><g mask="url(&quot;#SvgjsMask1165&quot;)" fill="none"><rect width="1440" height="560" x="0" y="0" fill="rgba(4, 0, 102, 1)"></rect><path d="M17.24 -14.21L38.03 -2.21L38.03 21.79L17.24 33.79L-3.55 21.79L-3.55 -2.21zM38.03 21.79L58.81 33.79L58.81 57.79L38.03 69.79L17.24 57.79L17.24 33.79zM38.03 93.79L58.81 105.79L58.81 129.79L38.03 141.79L17.24 129.79L17.24 105.79zM17.24 201.79L38.03 213.79L38.03 237.79L17.24 249.79L-3.55 237.79L-3.55 213.79zM38.03 309.79L58.81 321.79L58.81 345.79L38.03 357.79L17.24 345.79L17.24 321.79zM38.03 381.79L58.81 393.79L58.81 417.79L38.03 429.79L17.24 417.79L17.24 393.79zM79.6 165.79L100.38 177.79L100.38 201.79L79.6 213.79L58.81 201.79L58.81 177.79zM58.81 201.79L79.6 213.79L79.6 237.79L58.81 249.79L38.03 237.79L38.03 213.79zM58.81 345.79L79.6 357.79L79.6 381.79L58.81 393.79L38.03 381.79L38.03 357.79zM79.6 381.79L100.38 393.79L100.38 417.79L79.6 429.79L58.81 417.79L58.81 393.79zM79.6 453.79L100.38 465.79L100.38 489.79L79.6 501.79L58.81 489.79L58.81 465.79zM79.6 525.79L100.38 537.79L100.38 561.79L79.6 573.79L58.81 561.79L58.81 537.79zM58.81 561.79L79.6 573.79L79.6 597.79L58.81 609.79L38.03 597.79L38.03 573.79zM100.38 57.79L121.17 69.79L121.17 93.79L100.38 105.79L79.6 93.79L79.6 69.79zM121.17 453.79L141.95 465.79L141.95 489.79L121.17 501.79L100.38 489.79L100.38 465.79zM141.95 -14.21L162.74 -2.21L162.74 21.79L141.95 33.79L121.17 21.79L121.17 -2.21zM141.95 417.79L162.74 429.79L162.74 453.79L141.95 465.79L121.17 453.79L121.17 429.79zM141.95 489.79L162.74 501.79L162.74 525.79L141.95 537.79L121.17 525.79L121.17 501.79zM141.95 561.79L162.74 573.79L162.74 597.79L141.95 609.79L121.17 597.79L121.17 573.79zM204.31 309.79L225.09 321.79L225.09 345.79L204.31 357.79L183.52 345.79L183.52 321.79zM183.52 345.79L204.31 357.79L204.31 381.79L183.52 393.79L162.74 381.79L162.74 357.79zM225.09 129.79L245.88 141.79L245.88 165.79L225.09 177.79L204.31 165.79L204.31 141.79zM287.45 93.79L308.23 105.79L308.23 129.79L287.45 141.79L266.66 129.79L266.66 105.79zM287.45 381.79L308.23 393.79L308.23 417.79L287.45 429.79L266.66 417.79L266.66 393.79zM287.45 525.79L308.23 537.79L308.23 561.79L287.45 573.79L266.66 561.79L266.66 537.79zM266.66 561.79L287.45 573.79L287.45 597.79L266.66 609.79L245.88 597.79L245.88 573.79zM329.02 93.79L349.8 105.79L349.8 129.79L329.02 141.79L308.23 129.79L308.23 105.79zM329.02 165.79L349.8 177.79L349.8 201.79L329.02 213.79L308.23 201.79L308.23 177.79zM329.02 381.79L349.8 393.79L349.8 417.79L329.02 429.79L308.23 417.79L308.23 393.79zM329.02 525.79L349.8 537.79L349.8 561.79L329.02 573.79L308.23 561.79L308.23 537.79zM349.8 -14.21L370.59 -2.21L370.59 21.79L349.8 33.79L329.02 21.79L329.02 -2.21zM370.59 21.79L391.37 33.79L391.37 57.79L370.59 69.79L349.8 57.79L349.8 33.79zM370.59 93.79L391.37 105.79L391.37 129.79L370.59 141.79L349.8 129.79L349.8 105.79zM349.8 129.79L370.59 141.79L370.59 165.79L349.8 177.79L329.02 165.79L329.02 141.79zM349.8 201.79L370.59 213.79L370.59 237.79L349.8 249.79L329.02 237.79L329.02 213.79zM370.59 309.79L391.37 321.79L391.37 345.79L370.59 357.79L349.8 345.79L349.8 321.79zM370.59 453.79L391.37 465.79L391.37 489.79L370.59 501.79L349.8 489.79L349.8 465.79zM391.37 -14.21L412.16 -2.21L412.16 21.79L391.37 33.79L370.59 21.79L370.59 -2.21zM391.37 57.79L412.16 69.79L412.16 93.79L391.37 105.79L370.59 93.79L370.59 69.79zM391.37 273.79L412.16 285.79L412.16 309.79L391.37 321.79L370.59 309.79L370.59 285.79zM391.37 417.79L412.16 429.79L412.16 453.79L391.37 465.79L370.59 453.79L370.59 429.79zM412.16 453.79L432.94 465.79L432.94 489.79L412.16 501.79L391.37 489.79L391.37 465.79zM453.73 237.79L474.51 249.79L474.51 273.79L453.73 285.79L432.94 273.79L432.94 249.79zM432.94 417.79L453.73 429.79L453.73 453.79L432.94 465.79L412.16 453.79L412.16 429.79zM432.94 489.79L453.73 501.79L453.73 525.79L432.94 537.79L412.16 525.79L412.16 501.79zM453.73 525.79L474.51 537.79L474.51 561.79L453.73 573.79L432.94 561.79L432.94 537.79zM495.3 237.79L516.08 249.79L516.08 273.79L495.3 285.79L474.51 273.79L474.51 249.79zM495.3 309.79L516.08 321.79L516.08 345.79L495.3 357.79L474.51 345.79L474.51 321.79zM495.3 381.79L516.08 393.79L516.08 417.79L495.3 429.79L474.51 417.79L474.51 393.79zM495.3 525.79L516.08 537.79L516.08 561.79L495.3 573.79L474.51 561.79L474.51 537.79zM516.08 345.79L536.87 357.79L536.87 381.79L516.08 393.79L495.3 381.79L495.3 357.79zM536.87 453.79L557.66 465.79L557.66 489.79L536.87 501.79L516.08 489.79L516.08 465.79zM578.44 21.79L599.23 33.79L599.23 57.79L578.44 69.79L557.66 57.79L557.66 33.79zM557.66 57.79L578.44 69.79L578.44 93.79L557.66 105.79L536.87 93.79L536.87 69.79zM578.44 165.79L599.23 177.79L599.23 201.79L578.44 213.79L557.66 201.79L557.66 177.79zM578.44 237.79L599.23 249.79L599.23 273.79L578.44 285.79L557.66 273.79L557.66 249.79zM578.44 453.79L599.23 465.79L599.23 489.79L578.44 501.79L557.66 489.79L557.66 465.79zM557.66 489.79L578.44 501.79L578.44 525.79L557.66 537.79L536.87 525.79L536.87 501.79zM557.66 561.79L578.44 573.79L578.44 597.79L557.66 609.79L536.87 597.79L536.87 573.79zM599.23 57.79L620.01 69.79L620.01 93.79L599.23 105.79L578.44 93.79L578.44 69.79zM661.58 165.79L682.37 177.79L682.37 201.79L661.58 213.79L640.8 201.79L640.8 177.79zM640.8 201.79L661.58 213.79L661.58 237.79L640.8 249.79L620.01 237.79L620.01 213.79zM682.37 -14.21L703.15 -2.21L703.15 21.79L682.37 33.79L661.58 21.79L661.58 -2.21zM703.15 21.79L723.94 33.79L723.94 57.79L703.15 69.79L682.37 57.79L682.37 33.79zM703.15 237.79L723.94 249.79L723.94 273.79L703.15 285.79L682.37 273.79L682.37 249.79zM703.15 381.79L723.94 393.79L723.94 417.79L703.15 429.79L682.37 417.79L682.37 393.79zM703.15 525.79L723.94 537.79L723.94 561.79L703.15 573.79L682.37 561.79L682.37 537.79zM723.94 -14.21L744.72 -2.21L744.72 21.79L723.94 33.79L703.15 21.79L703.15 -2.21zM723.94 57.79L744.72 69.79L744.72 93.79L723.94 105.79L703.15 93.79L703.15 69.79zM723.94 489.79L744.72 501.79L744.72 525.79L723.94 537.79L703.15 525.79L703.15 501.79zM786.29 21.79L807.08 33.79L807.08 57.79L786.29 69.79L765.51 57.79L765.51 33.79zM786.29 93.79L807.08 105.79L807.08 129.79L786.29 141.79L765.51 129.79L765.51 105.79zM827.86 381.79L848.65 393.79L848.65 417.79L827.86 429.79L807.08 417.79L807.08 393.79zM807.08 417.79L827.86 429.79L827.86 453.79L807.08 465.79L786.29 453.79L786.29 429.79zM827.86 453.79L848.65 465.79L848.65 489.79L827.86 501.79L807.08 489.79L807.08 465.79zM848.65 57.79L869.43 69.79L869.43 93.79L848.65 105.79L827.86 93.79L827.86 69.79zM848.65 129.79L869.43 141.79L869.43 165.79L848.65 177.79L827.86 165.79L827.86 141.79zM890.22 201.79L911 213.79L911 237.79L890.22 249.79L869.43 237.79L869.43 213.79zM911 309.79L931.79 321.79L931.79 345.79L911 357.79L890.22 345.79L890.22 321.79zM890.22 489.79L911 501.79L911 525.79L890.22 537.79L869.43 525.79L869.43 501.79zM911 525.79L931.79 537.79L931.79 561.79L911 573.79L890.22 561.79L890.22 537.79zM890.22 561.79L911 573.79L911 597.79L890.22 609.79L869.43 597.79L869.43 573.79zM931.79 -14.21L952.57 -2.21L952.57 21.79L931.79 33.79L911 21.79L911 -2.21zM931.79 345.79L952.57 357.79L952.57 381.79L931.79 393.79L911 381.79L911 357.79zM973.36 -14.21L994.14 -2.21L994.14 21.79L973.36 33.79L952.57 21.79L952.57 -2.21zM994.14 21.79L1014.93 33.79L1014.93 57.79L994.14 69.79L973.36 57.79L973.36 33.79zM994.14 165.79L1014.93 177.79L1014.93 201.79L994.14 213.79L973.36 201.79L973.36 177.79zM994.14 237.79L1014.93 249.79L1014.93 273.79L994.14 285.79L973.36 273.79L973.36 249.79zM973.36 417.79L994.14 429.79L994.14 453.79L973.36 465.79L952.57 453.79L952.57 429.79zM973.36 561.79L994.14 573.79L994.14 597.79L973.36 609.79L952.57 597.79L952.57 573.79zM1014.93 57.79L1035.71 69.79L1035.71 93.79L1014.93 105.79L994.14 93.79L994.14 69.79zM1035.71 309.79L1056.5 321.79L1056.5 345.79L1035.71 357.79L1014.93 345.79L1014.93 321.79zM1035.71 381.79L1056.5 393.79L1056.5 417.79L1035.71 429.79L1014.93 417.79L1014.93 393.79zM1014.93 417.79L1035.71 429.79L1035.71 453.79L1014.93 465.79L994.14 453.79L994.14 429.79zM1014.93 489.79L1035.71 501.79L1035.71 525.79L1014.93 537.79L994.14 525.79L994.14 501.79zM1035.71 525.79L1056.5 537.79L1056.5 561.79L1035.71 573.79L1014.93 561.79L1014.93 537.79zM1077.29 93.79L1098.07 105.79L1098.07 129.79L1077.29 141.79L1056.5 129.79L1056.5 105.79zM1056.5 129.79L1077.29 141.79L1077.29 165.79L1056.5 177.79L1035.71 165.79L1035.71 141.79zM1056.5 345.79L1077.29 357.79L1077.29 381.79L1056.5 393.79L1035.71 381.79L1035.71 357.79zM1077.29 381.79L1098.07 393.79L1098.07 417.79L1077.29 429.79L1056.5 417.79L1056.5 393.79zM1077.29 525.79L1098.07 537.79L1098.07 561.79L1077.29 573.79L1056.5 561.79L1056.5 537.79zM1118.86 21.79L1139.64 33.79L1139.64 57.79L1118.86 69.79L1098.07 57.79L1098.07 33.79zM1098.07 129.79L1118.86 141.79L1118.86 165.79L1098.07 177.79L1077.29 165.79L1077.29 141.79zM1118.86 237.79L1139.64 249.79L1139.64 273.79L1118.86 285.79L1098.07 273.79L1098.07 249.79zM1118.86 309.79L1139.64 321.79L1139.64 345.79L1118.86 357.79L1098.07 345.79L1098.07 321.79zM1098.07 489.79L1118.86 501.79L1118.86 525.79L1098.07 537.79L1077.29 525.79L1077.29 501.79zM1160.43 21.79L1181.21 33.79L1181.21 57.79L1160.43 69.79L1139.64 57.79L1139.64 33.79zM1139.64 561.79L1160.43 573.79L1160.43 597.79L1139.64 609.79L1118.86 597.79L1118.86 573.79zM1181.21 -14.21L1202 -2.21L1202 21.79L1181.21 33.79L1160.43 21.79L1160.43 -2.21zM1222.78 129.79L1243.57 141.79L1243.57 165.79L1222.78 177.79L1202 165.79L1202 141.79zM1222.78 489.79L1243.57 501.79L1243.57 525.79L1222.78 537.79L1202 525.79L1202 501.79zM1243.57 525.79L1264.35 537.79L1264.35 561.79L1243.57 573.79L1222.78 561.79L1222.78 537.79zM1285.14 525.79L1305.92 537.79L1305.92 561.79L1285.14 573.79L1264.35 561.79L1264.35 537.79zM1326.71 21.79L1347.49 33.79L1347.49 57.79L1326.71 69.79L1305.92 57.79L1305.92 33.79zM1305.92 57.79L1326.71 69.79L1326.71 93.79L1305.92 105.79L1285.14 93.79L1285.14 69.79zM1326.71 93.79L1347.49 105.79L1347.49 129.79L1326.71 141.79L1305.92 129.79L1305.92 105.79zM1305.92 129.79L1326.71 141.79L1326.71 165.79L1305.92 177.79L1285.14 165.79L1285.14 141.79zM1305.92 201.79L1326.71 213.79L1326.71 237.79L1305.92 249.79L1285.14 237.79L1285.14 213.79zM1326.71 237.79L1347.49 249.79L1347.49 273.79L1326.71 285.79L1305.92 273.79L1305.92 249.79zM1326.71 453.79L1347.49 465.79L1347.49 489.79L1326.71 501.79L1305.92 489.79L1305.92 465.79zM1326.71 525.79L1347.49 537.79L1347.49 561.79L1326.71 573.79L1305.92 561.79L1305.92 537.79zM1368.28 21.79L1389.06 33.79L1389.06 57.79L1368.28 69.79L1347.49 57.79L1347.49 33.79zM1368.28 165.79L1389.06 177.79L1389.06 201.79L1368.28 213.79L1347.49 201.79L1347.49 177.79zM1347.49 201.79L1368.28 213.79L1368.28 237.79L1347.49 249.79L1326.71 237.79L1326.71 213.79zM1347.49 273.79L1368.28 285.79L1368.28 309.79L1347.49 321.79L1326.71 309.79L1326.71 285.79zM1347.49 417.79L1368.28 429.79L1368.28 453.79L1347.49 465.79L1326.71 453.79L1326.71 429.79zM1389.06 57.79L1409.85 69.79L1409.85 93.79L1389.06 105.79L1368.28 93.79L1368.28 69.79zM1409.85 165.79L1430.63 177.79L1430.63 201.79L1409.85 213.79L1389.06 201.79L1389.06 177.79zM1430.63 57.79L1451.42 69.79L1451.42 93.79L1430.63 105.79L1409.85 93.79L1409.85 69.79zM1451.42 237.79L1472.2 249.79L1472.2 273.79L1451.42 285.79L1430.63 273.79L1430.63 249.79zM1451.42 381.79L1472.2 393.79L1472.2 417.79L1451.42 429.79L1430.63 417.79L1430.63 393.79zM1430.63 417.79L1451.42 429.79L1451.42 453.79L1430.63 465.79L1409.85 453.79L1409.85 429.79zM1451.42 453.79L1472.2 465.79L1472.2 489.79L1451.42 501.79L1430.63 489.79L1430.63 465.79zM1451.42 525.79L1472.2 537.79L1472.2 561.79L1451.42 573.79L1430.63 561.79L1430.63 537.79zM1430.63 561.79L1451.42 573.79L1451.42 597.79L1430.63 609.79L1409.85 597.79L1409.85 573.79z" stroke="rgba(6, 80, 156, 0.93)" stroke-width="2"></path><path d="M14.24 -14.21 a3 3 0 1 0 6 0 a3 3 0 1 0 -6 0zM35.03 -2.21 a3 3 0 1 0 6 0 a3 3 0 1 0 -6 0zM35.03 21.79 a3 3 0 1 0 6 0 a3 3 0 1 0 -6 0zM14.24 33.79 a3 3 0 1 0 6 0 a3 3 0 1 0 -6 0zM-6.55 21.79 a3 3 0 1 0 6 0 a3 3 0 1 0 -6 0zM-6.55 -2.21 a3 3 0 1 0 6 0 a3 3 0 1 0 -6 0zM55.81 33.79 a3 3 0 1 0 6 0 a3 3 0 1 0 -6 0zM55.81 57.79 a3 3 0 1 0 6 0 a3 3 0 1 0 -6 0zM35.03 69.79 a3 3 0 1 0 6 0 a3 3 0 1 0 -6 0zM14.24 57.79 a3 3 0 1 0 6 0 a3 3 0 1 0 -6 0zM35.03 93.79 a3 3 0 1 0 6 0 a3 3 0 1 0 -6 0zM55.81 105.79 a3 3 0 1 0 6 0 a3 3 0 1 0 -6 0zM55.81 129.79 a3 3 0 1 0 6 0 a3 3 0 1 0 -6 0zM35.03 141.79 a3 3 0 1 0 6 0 a3 3 0 1 0 -6 0zM14.24 129.79 a3 3 0 1 0 6 0 a3 3 0 1 0 -6 0zM14.24 105.79 a3 3 0 1 0 6 0 a3 3 0 1 0 -6 0zM14.24 201.79 a3 3 0 1 0 6 0 a3 3 0 1 0 -6 0zM35.03 213.79 a3 3 0 1 0 6 0 a3 3 0 1 0 -6 0zM35.03 237.79 a3 3 0 1 0 6 0 a3 3 0 1 0 -6 0zM14.24 249.79 a3 3 0 1 0 6 0 a3 3 0 1 0 -6 0zM-6.55 237.79 a3 3 0 1 0 6 0 a3 3 0 1 0 -6 0zM-6.55 213.79 a3 3 0 1 0 6 0 a3 3 0 1 0 -6 0zM35.03 309.79 a3 3 0 1 0 6 0 a3 3 0 1 0 -6 0zM55.81 321.79 a3 3 0 1 0 6 0 a3 3 0 1 0 -6 0zM55.81 345.79 a3 3 0 1 0 6 0 a3 3 0 1 0 -6 0zM35.03 357.79 a3 3 0 1 0 6 0 a3 3 0 1 0 -6 0zM14.24 345.79 a3 3 0 1 0 6 0 a3 3 0 1 0 -6 0zM14.24 321.79 a3 3 0 1 0 6 0 a3 3 0 1 0 -6 0zM35.03 381.79 a3 3 0 1 0 6 0 a3 3 0 1 0 -6 0zM55.81 393.79 a3 3 0 1 0 6 0 a3 3 0 1 0 -6 0zM55.81 417.79 a3 3 0 1 0 6 0 a3 3 0 1 0 -6 0zM35.03 429.79 a3 3 0 1 0 6 0 a3 3 0 1 0 -6 0zM14.24 417.79 a3 3 0 1 0 6 0 a3 3 0 1 0 -6 0zM14.24 393.79 a3 3 0 1 0 6 0 a3 3 0 1 0 -6 0zM76.6 165.79 a3 3 0 1 0 6 0 a3 3 0 1 0 -6 0zM97.38 177.79 a3 3 0 1 0 6 0 a3 3 0 1 0 -6 0zM97.38 201.79 a3 3 0 1 0 6 0 a3 3 0 1 0 -6 0zM76.6 213.79 a3 3 0 1 0 6 0 a3 3 0 1 0 -6 0zM55.81 201.79 a3 3 0 1 0 6 0 a3 3 0 1 0 -6 0zM55.81 177.79 a3 3 0 1 0 6 0 a3 3 0 1 0 -6 0zM76.6 237.79 a3 3 0 1 0 6 0 a3 3 0 1 0 -6 0zM55.81 249.79 a3 3 0 1 0 6 0 a3 3 0 1 0 -6 0zM76.6 357.79 a3 3 0 1 0 6 0 a3 3 0 1 0 -6 0zM76.6 381.79 a3 3 0 1 0 6 0 a3 3 0 1 0 -6 0zM97.38 393.79 a3 3 0 1 0 6 0 a3 3 0 1 0 -6 0zM97.38 417.79 a3 3 0 1 0 6 0 a3 3 0 1 0 -6 0zM76.6 429.79 a3 3 0 1 0 6 0 a3 3 0 1 0 -6 0zM76.6 453.79 a3 3 0 1 0 6 0 a3 3 0 1 0 -6 0zM97.38 465.79 a3 3 0 1 0 6 0 a3 3 0 1 0 -6 0zM97.38 489.79 a3 3 0 1 0 6 0 a3 3 0 1 0 -6 0zM76.6 501.79 a3 3 0 1 0 6 0 a3 3 0 1 0 -6 0zM55.81 489.79 a3 3 0 1 0 6 0 a3 3 0 1 0 -6 0zM55.81 465.79 a3 3 0 1 0 6 0 a3 3 0 1 0 -6 0zM76.6 525.79 a3 3 0 1 0 6 0 a3 3 0 1 0 -6 0zM97.38 537.79 a3 3 0 1 0 6 0 a3 3 0 1 0 -6 0zM97.38 561.79 a3 3 0 1 0 6 0 a3 3 0 1 0 -6 0zM76.6 573.79 a3 3 0 1 0 6 0 a3 3 0 1 0 -6 0zM55.81 561.79 a3 3 0 1 0 6 0 a3 3 0 1 0 -6 0zM55.81 537.79 a3 3 0 1 0 6 0 a3 3 0 1 0 -6 0zM76.6 597.79 a3 3 0 1 0 6 0 a3 3 0 1 0 -6 0zM55.81 609.79 a3 3 0 1 0 6 0 a3 3 0 1 0 -6 0zM35.03 597.79 a3 3 0 1 0 6 0 a3 3 0 1 0 -6 0zM35.03 573.79 a3 3 0 1 0 6 0 a3 3 0 1 0 -6 0zM97.38 57.79 a3 3 0 1 0 6 0 a3 3 0 1 0 -6 0zM118.17 69.79 a3 3 0 1 0 6 0 a3 3 0 1 0 -6 0zM118.17 93.79 a3 3 0 1 0 6 0 a3 3 0 1 0 -6 0zM97.38 105.79 a3 3 0 1 0 6 0 a3 3 0 1 0 -6 0zM76.6 93.79 a3 3 0 1 0 6 0 a3 3 0 1 0 -6 0zM76.6 69.79 a3 3 0 1 0 6 0 a3 3 0 1 0 -6 0zM118.17 453.79 a3 3 0 1 0 6 0 a3 3 0 1 0 -6 0zM138.95 465.79 a3 3 0 1 0 6 0 a3 3 0 1 0 -6 0zM138.95 489.79 a3 3 0 1 0 6 0 a3 3 0 1 0 -6 0zM118.17 501.79 a3 3 0 1 0 6 0 a3 3 0 1 0 -6 0zM138.95 -14.21 a3 3 0 1 0 6 0 a3 3 0 1 0 -6 0zM159.74 -2.21 a3 3 0 1 0 6 0 a3 3 0 1 0 -6 0zM159.74 21.79 a3 3 0 1 0 6 0 a3 3 0 1 0 -6 0zM138.95 33.79 a3 3 0 1 0 6 0 a3 3 0 1 0 -6 0zM118.17 21.79 a3 3 0 1 0 6 0 a3 3 0 1 0 -6 0zM118.17 -2.21 a3 3 0 1 0 6 0 a3 3 0 1 0 -6 0zM138.95 417.79 a3 3 0 1 0 6 0 a3 3 0 1 0 -6 0zM159.74 429.79 a3 3 0 1 0 6 0 a3 3 0 1 0 -6 0zM159.74 453.79 a3 3 0 1 0 6 0 a3 3 0 1 0 -6 0zM118.17 429.79 a3 3 0 1 0 6 0 a3 3 0 1 0 -6 0zM159.74 501.79 a3 3 0 1 0 6 0 a3 3 0 1 0 -6 0zM159.74 525.79 a3 3 0 1 0 6 0 a3 3 0 1 0 -6 0zM138.95 537.79 a3 3 0 1 0 6 0 a3 3 0 1 0 -6 0zM118.17 525.79 a3 3 0 1 0 6 0 a3 3 0 1 0 -6 0zM138.95 561.79 a3 3 0 1 0 6 0 a3 3 0 1 0 -6 0zM159.74 573.79 a3 3 0 1 0 6 0 a3 3 0 1 0 -6 0zM159.74 597.79 a3 3 0 1 0 6 0 a3 3 0 1 0 -6 0zM138.95 609.79 a3 3 0 1 0 6 0 a3 3 0 1 0 -6 0zM118.17 597.79 a3 3 0 1 0 6 0 a3 3 0 1 0 -6 0zM118.17 573.79 a3 3 0 1 0 6 0 a3 3 0 1 0 -6 0zM201.31 309.79 a3 3 0 1 0 6 0 a3 3 0 1 0 -6 0zM222.09 321.79 a3 3 0 1 0 6 0 a3 3 0 1 0 -6 0zM222.09 345.79 a3 3 0 1 0 6 0 a3 3 0 1 0 -6 0zM201.31 357.79 a3 3 0 1 0 6 0 a3 3 0 1 0 -6 0zM180.52 345.79 a3 3 0 1 0 6 0 a3 3 0 1 0 -6 0zM180.52 321.79 a3 3 0 1 0 6 0 a3 3 0 1 0 -6 0zM201.31 381.79 a3 3 0 1 0 6 0 a3 3 0 1 0 -6 0zM180.52 393.79 a3 3 0 1 0 6 0 a3 3 0 1 0 -6 0zM159.74 381.79 a3 3 0 1 0 6 0 a3 3 0 1 0 -6 0zM159.74 357.79 a3 3 0 1 0 6 0 a3 3 0 1 0 -6 0zM222.09 129.79 a3 3 0 1 0 6 0 a3 3 0 1 0 -6 0zM242.88 141.79 a3 3 0 1 0 6 0 a3 3 0 1 0 -6 0zM242.88 165.79 a3 3 0 1 0 6 0 a3 3 0 1 0 -6 0zM222.09 177.79 a3 3 0 1 0 6 0 a3 3 0 1 0 -6 0zM201.31 165.79 a3 3 0 1 0 6 0 a3 3 0 1 0 -6 0zM201.31 141.79 a3 3 0 1 0 6 0 a3 3 0 1 0 -6 0zM284.45 93.79 a3 3 0 1 0 6 0 a3 3 0 1 0 -6 0zM305.23 105.79 a3 3 0 1 0 6 0 a3 3 0 1 0 -6 0zM305.23 129.79 a3 3 0 1 0 6 0 a3 3 0 1 0 -6 0zM284.45 141.79 a3 3 0 1 0 6 0 a3 3 0 1 0 -6 0zM263.66 129.79 a3 3 0 1 0 6 0 a3 3 0 1 0 -6 0zM263.66 105.79 a3 3 0 1 0 6 0 a3 3 0 1 0 -6 0zM284.45 381.79 a3 3 0 1 0 6 0 a3 3 0 1 0 -6 0zM305.23 393.79 a3 3 0 1 0 6 0 a3 3 0 1 0 -6 0zM305.23 417.79 a3 3 0 1 0 6 0 a3 3 0 1 0 -6 0zM284.45 429.79 a3 3 0 1 0 6 0 a3 3 0 1 0 -6 0zM263.66 417.79 a3 3 0 1 0 6 0 a3 3 0 1 0 -6 0zM263.66 393.79 a3 3 0 1 0 6 0 a3 3 0 1 0 -6 0zM284.45 525.79 a3 3 0 1 0 6 0 a3 3 0 1 0 -6 0zM305.23 537.79 a3 3 0 1 0 6 0 a3 3 0 1 0 -6 0zM305.23 561.79 a3 3 0 1 0 6 0 a3 3 0 1 0 -6 0zM284.45 573.79 a3 3 0 1 0 6 0 a3 3 0 1 0 -6 0zM263.66 561.79 a3 3 0 1 0 6 0 a3 3 0 1 0 -6 0zM263.66 537.79 a3 3 0 1 0 6 0 a3 3 0 1 0 -6 0zM284.45 597.79 a3 3 0 1 0 6 0 a3 3 0 1 0 -6 0zM263.66 609.79 a3 3 0 1 0 6 0 a3 3 0 1 0 -6 0zM242.88 597.79 a3 3 0 1 0 6 0 a3 3 0 1 0 -6 0zM242.88 573.79 a3 3 0 1 0 6 0 a3 3 0 1 0 -6 0zM326.02 93.79 a3 3 0 1 0 6 0 a3 3 0 1 0 -6 0zM346.8 105.79 a3 3 0 1 0 6 0 a3 3 0 1 0 -6 0zM346.8 129.79 a3 3 0 1 0 6 0 a3 3 0 1 0 -6 0zM326.02 141.79 a3 3 0 1 0 6 0 a3 3 0 1 0 -6 0zM326.02 165.79 a3 3 0 1 0 6 0 a3 3 0 1 0 -6 0zM346.8 177.79 a3 3 0 1 0 6 0 a3 3 0 1 0 -6 0zM346.8 201.79 a3 3 0 1 0 6 0 a3 3 0 1 0 -6 0zM326.02 213.79 a3 3 0 1 0 6 0 a3 3 0 1 0 -6 0zM305.23 201.79 a3 3 0 1 0 6 0 a3 3 0 1 0 -6 0zM305.23 177.79 a3 3 0 1 0 6 0 a3 3 0 1 0 -6 0zM326.02 381.79 a3 3 0 1 0 6 0 a3 3 0 1 0 -6 0zM346.8 393.79 a3 3 0 1 0 6 0 a3 3 0 1 0 -6 0zM346.8 417.79 a3 3 0 1 0 6 0 a3 3 0 1 0 -6 0zM326.02 429.79 a3 3 0 1 0 6 0 a3 3 0 1 0 -6 0zM326.02 525.79 a3 3 0 1 0 6 0 a3 3 0 1 0 -6 0zM346.8 537.79 a3 3 0 1 0 6 0 a3 3 0 1 0 -6 0zM346.8 561.79 a3 3 0 1 0 6 0 a3 3 0 1 0 -6 0zM326.02 573.79 a3 3 0 1 0 6 0 a3 3 0 1 0 -6 0zM346.8 -14.21 a3 3 0 1 0 6 0 a3 3 0 1 0 -6 0zM367.59 -2.21 a3 3 0 1 0 6 0 a3 3 0 1 0 -6 0zM367.59 21.79 a3 3 0 1 0 6 0 a3 3 0 1 0 -6 0zM346.8 33.79 a3 3 0 1 0 6 0 a3 3 0 1 0 -6 0zM326.02 21.79 a3 3 0 1 0 6 0 a3 3 0 1 0 -6 0zM326.02 -2.21 a3 3 0 1 0 6 0 a3 3 0 1 0 -6 0zM388.37 33.79 a3 3 0 1 0 6 0 a3 3 0 1 0 -6 0zM388.37 57.79 a3 3 0 1 0 6 0 a3 3 0 1 0 -6 0zM367.59 69.79 a3 3 0 1 0 6 0 a3 3 0 1 0 -6 0zM346.8 57.79 a3 3 0 1 0 6 0 a3 3 0 1 0 -6 0zM367.59 93.79 a3 3 0 1 0 6 0 a3 3 0 1 0 -6 0zM388.37 105.79 a3 3 0 1 0 6 0 a3 3 0 1 0 -6 0zM388.37 129.79 a3 3 0 1 0 6 0 a3 3 0 1 0 -6 0zM367.59 141.79 a3 3 0 1 0 6 0 a3 3 0 1 0 -6 0zM367.59 165.79 a3 3 0 1 0 6 0 a3 3 0 1 0 -6 0zM367.59 213.79 a3 3 0 1 0 6 0 a3 3 0 1 0 -6 0zM367.59 237.79 a3 3 0 1 0 6 0 a3 3 0 1 0 -6 0zM346.8 249.79 a3 3 0 1 0 6 0 a3 3 0 1 0 -6 0zM326.02 237.79 a3 3 0 1 0 6 0 a3 3 0 1 0 -6 0zM367.59 309.79 a3 3 0 1 0 6 0 a3 3 0 1 0 -6 0zM388.37 321.79 a3 3 0 1 0 6 0 a3 3 0 1 0 -6 0zM388.37 345.79 a3 3 0 1 0 6 0 a3 3 0 1 0 -6 0zM367.59 357.79 a3 3 0 1 0 6 0 a3 3 0 1 0 -6 0zM346.8 345.79 a3 3 0 1 0 6 0 a3 3 0 1 0 -6 0zM346.8 321.79 a3 3 0 1 0 6 0 a3 3 0 1 0 -6 0zM367.59 453.79 a3 3 0 1 0 6 0 a3 3 0 1 0 -6 0zM388.37 465.79 a3 3 0 1 0 6 0 a3 3 0 1 0 -6 0zM388.37 489.79 a3 3 0 1 0 6 0 a3 3 0 1 0 -6 0zM367.59 501.79 a3 3 0 1 0 6 0 a3 3 0 1 0 -6 0zM346.8 489.79 a3 3 0 1 0 6 0 a3 3 0 1 0 -6 0zM346.8 465.79 a3 3 0 1 0 6 0 a3 3 0 1 0 -6 0zM388.37 -14.21 a3 3 0 1 0 6 0 a3 3 0 1 0 -6 0zM409.16 -2.21 a3 3 0 1 0 6 0 a3 3 0 1 0 -6 0zM409.16 21.79 a3 3 0 1 0 6 0 a3 3 0 1 0 -6 0zM409.16 69.79 a3 3 0 1 0 6 0 a3 3 0 1 0 -6 0zM409.16 93.79 a3 3 0 1 0 6 0 a3 3 0 1 0 -6 0zM388.37 273.79 a3 3 0 1 0 6 0 a3 3 0 1 0 -6 0zM409.16 285.79 a3 3 0 1 0 6 0 a3 3 0 1 0 -6 0zM409.16 309.79 a3 3 0 1 0 6 0 a3 3 0 1 0 -6 0zM367.59 285.79 a3 3 0 1 0 6 0 a3 3 0 1 0 -6 0zM388.37 417.79 a3 3 0 1 0 6 0 a3 3 0 1 0 -6 0zM409.16 429.79 a3 3 0 1 0 6 0 a3 3 0 1 0 -6 0zM409.16 453.79 a3 3 0 1 0 6 0 a3 3 0 1 0 -6 0zM367.59 429.79 a3 3 0 1 0 6 0 a3 3 0 1 0 -6 0zM429.94 465.79 a3 3 0 1 0 6 0 a3 3 0 1 0 -6 0zM429.94 489.79 a3 3 0 1 0 6 0 a3 3 0 1 0 -6 0zM409.16 501.79 a3 3 0 1 0 6 0 a3 3 0 1 0 -6 0zM450.73 237.79 a3 3 0 1 0 6 0 a3 3 0 1 0 -6 0zM471.51 249.79 a3 3 0 1 0 6 0 a3 3 0 1 0 -6 0zM471.51 273.79 a3 3 0 1 0 6 0 a3 3 0 1 0 -6 0zM450.73 285.79 a3 3 0 1 0 6 0 a3 3 0 1 0 -6 0zM429.94 273.79 a3 3 0 1 0 6 0 a3 3 0 1 0 -6 0zM429.94 249.79 a3 3 0 1 0 6 0 a3 3 0 1 0 -6 0zM429.94 417.79 a3 3 0 1 0 6 0 a3 3 0 1 0 -6 0zM450.73 429.79 a3 3 0 1 0 6 0 a3 3 0 1 0 -6 0zM450.73 453.79 a3 3 0 1 0 6 0 a3 3 0 1 0 -6 0zM450.73 501.79 a3 3 0 1 0 6 0 a3 3 0 1 0 -6 0zM450.73 525.79 a3 3 0 1 0 6 0 a3 3 0 1 0 -6 0zM429.94 537.79 a3 3 0 1 0 6 0 a3 3 0 1 0 -6 0zM409.16 525.79 a3 3 0 1 0 6 0 a3 3 0 1 0 -6 0zM471.51 537.79 a3 3 0 1 0 6 0 a3 3 0 1 0 -6 0zM471.51 561.79 a3 3 0 1 0 6 0 a3 3 0 1 0 -6 0zM450.73 573.79 a3 3 0 1 0 6 0 a3 3 0 1 0 -6 0zM429.94 561.79 a3 3 0 1 0 6 0 a3 3 0 1 0 -6 0zM492.3 237.79 a3 3 0 1 0 6 0 a3 3 0 1 0 -6 0zM513.08 249.79 a3 3 0 1 0 6 0 a3 3 0 1 0 -6 0zM513.08 273.79 a3 3 0 1 0 6 0 a3 3 0 1 0 -6 0zM492.3 285.79 a3 3 0 1 0 6 0 a3 3 0 1 0 -6 0zM492.3 309.79 a3 3 0 1 0 6 0 a3 3 0 1 0 -6 0zM513.08 321.79 a3 3 0 1 0 6 0 a3 3 0 1 0 -6 0zM513.08 345.79 a3 3 0 1 0 6 0 a3 3 0 1 0 -6 0zM492.3 357.79 a3 3 0 1 0 6 0 a3 3 0 1 0 -6 0zM471.51 345.79 a3 3 0 1 0 6 0 a3 3 0 1 0 -6 0zM471.51 321.79 a3 3 0 1 0 6 0 a3 3 0 1 0 -6 0zM492.3 381.79 a3 3 0 1 0 6 0 a3 3 0 1 0 -6 0zM513.08 393.79 a3 3 0 1 0 6 0 a3 3 0 1 0 -6 0zM513.08 417.79 a3 3 0 1 0 6 0 a3 3 0 1 0 -6 0zM492.3 429.79 a3 3 0 1 0 6 0 a3 3 0 1 0 -6 0zM471.51 417.79 a3 3 0 1 0 6 0 a3 3 0 1 0 -6 0zM471.51 393.79 a3 3 0 1 0 6 0 a3 3 0 1 0 -6 0zM492.3 525.79 a3 3 0 1 0 6 0 a3 3 0 1 0 -6 0zM513.08 537.79 a3 3 0 1 0 6 0 a3 3 0 1 0 -6 0zM513.08 561.79 a3 3 0 1 0 6 0 a3 3 0 1 0 -6 0zM492.3 573.79 a3 3 0 1 0 6 0 a3 3 0 1 0 -6 0zM533.87 357.79 a3 3 0 1 0 6 0 a3 3 0 1 0 -6 0zM533.87 381.79 a3 3 0 1 0 6 0 a3 3 0 1 0 -6 0zM533.87 453.79 a3 3 0 1 0 6 0 a3 3 0 1 0 -6 0zM554.66 465.79 a3 3 0 1 0 6 0 a3 3 0 1 0 -6 0zM554.66 489.79 a3 3 0 1 0 6 0 a3 3 0 1 0 -6 0zM533.87 501.79 a3 3 0 1 0 6 0 a3 3 0 1 0 -6 0zM513.08 489.79 a3 3 0 1 0 6 0 a3 3 0 1 0 -6 0zM513.08 465.79 a3 3 0 1 0 6 0 a3 3 0 1 0 -6 0zM575.44 21.79 a3 3 0 1 0 6 0 a3 3 0 1 0 -6 0zM596.23 33.79 a3 3 0 1 0 6 0 a3 3 0 1 0 -6 0zM596.23 57.79 a3 3 0 1 0 6 0 a3 3 0 1 0 -6 0zM575.44 69.79 a3 3 0 1 0 6 0 a3 3 0 1 0 -6 0zM554.66 57.79 a3 3 0 1 0 6 0 a3 3 0 1 0 -6 0zM554.66 33.79 a3 3 0 1 0 6 0 a3 3 0 1 0 -6 0zM575.44 93.79 a3 3 0 1 0 6 0 a3 3 0 1 0 -6 0zM554.66 105.79 a3 3 0 1 0 6 0 a3 3 0 1 0 -6 0zM533.87 93.79 a3 3 0 1 0 6 0 a3 3 0 1 0 -6 0zM533.87 69.79 a3 3 0 1 0 6 0 a3 3 0 1 0 -6 0zM575.44 165.79 a3 3 0 1 0 6 0 a3 3 0 1 0 -6 0zM596.23 177.79 a3 3 0 1 0 6 0 a3 3 0 1 0 -6 0zM596.23 201.79 a3 3 0 1 0 6 0 a3 3 0 1 0 -6 0zM575.44 213.79 a3 3 0 1 0 6 0 a3 3 0 1 0 -6 0zM554.66 201.79 a3 3 0 1 0 6 0 a3 3 0 1 0 -6 0zM554.66 177.79 a3 3 0 1 0 6 0 a3 3 0 1 0 -6 0zM575.44 237.79 a3 3 0 1 0 6 0 a3 3 0 1 0 -6 0zM596.23 249.79 a3 3 0 1 0 6 0 a3 3 0 1 0 -6 0zM596.23 273.79 a3 3 0 1 0 6 0 a3 3 0 1 0 -6 0zM575.44 285.79 a3 3 0 1 0 6 0 a3 3 0 1 0 -6 0zM554.66 273.79 a3 3 0 1 0 6 0 a3 3 0 1 0 -6 0zM554.66 249.79 a3 3 0 1 0 6 0 a3 3 0 1 0 -6 0zM575.44 453.79 a3 3 0 1 0 6 0 a3 3 0 1 0 -6 0zM596.23 465.79 a3 3 0 1 0 6 0 a3 3 0 1 0 -6 0zM596.23 489.79 a3 3 0 1 0 6 0 a3 3 0 1 0 -6 0zM575.44 501.79 a3 3 0 1 0 6 0 a3 3 0 1 0 -6 0zM575.44 525.79 a3 3 0 1 0 6 0 a3 3 0 1 0 -6 0zM554.66 537.79 a3 3 0 1 0 6 0 a3 3 0 1 0 -6 0zM533.87 525.79 a3 3 0 1 0 6 0 a3 3 0 1 0 -6 0zM554.66 561.79 a3 3 0 1 0 6 0 a3 3 0 1 0 -6 0zM575.44 573.79 a3 3 0 1 0 6 0 a3 3 0 1 0 -6 0zM575.44 597.79 a3 3 0 1 0 6 0 a3 3 0 1 0 -6 0zM554.66 609.79 a3 3 0 1 0 6 0 a3 3 0 1 0 -6 0zM533.87 597.79 a3 3 0 1 0 6 0 a3 3 0 1 0 -6 0zM533.87 573.79 a3 3 0 1 0 6 0 a3 3 0 1 0 -6 0zM617.01 69.79 a3 3 0 1 0 6 0 a3 3 0 1 0 -6 0zM617.01 93.79 a3 3 0 1 0 6 0 a3 3 0 1 0 -6 0zM596.23 105.79 a3 3 0 1 0 6 0 a3 3 0 1 0 -6 0zM658.58 165.79 a3 3 0 1 0 6 0 a3 3 0 1 0 -6 0zM679.37 177.79 a3 3 0 1 0 6 0 a3 3 0 1 0 -6 0zM679.37 201.79 a3 3 0 1 0 6 0 a3 3 0 1 0 -6 0zM658.58 213.79 a3 3 0 1 0 6 0 a3 3 0 1 0 -6 0zM637.8 201.79 a3 3 0 1 0 6 0 a3 3 0 1 0 -6 0zM637.8 177.79 a3 3 0 1 0 6 0 a3 3 0 1 0 -6 0zM658.58 237.79 a3 3 0 1 0 6 0 a3 3 0 1 0 -6 0zM637.8 249.79 a3 3 0 1 0 6 0 a3 3 0 1 0 -6 0zM617.01 237.79 a3 3 0 1 0 6 0 a3 3 0 1 0 -6 0zM617.01 213.79 a3 3 0 1 0 6 0 a3 3 0 1 0 -6 0zM679.37 -14.21 a3 3 0 1 0 6 0 a3 3 0 1 0 -6 0zM700.15 -2.21 a3 3 0 1 0 6 0 a3 3 0 1 0 -6 0zM700.15 21.79 a3 3 0 1 0 6 0 a3 3 0 1 0 -6 0zM679.37 33.79 a3 3 0 1 0 6 0 a3 3 0 1 0 -6 0zM658.58 21.79 a3 3 0 1 0 6 0 a3 3 0 1 0 -6 0zM658.58 -2.21 a3 3 0 1 0 6 0 a3 3 0 1 0 -6 0zM720.94 33.79 a3 3 0 1 0 6 0 a3 3 0 1 0 -6 0zM720.94 57.79 a3 3 0 1 0 6 0 a3 3 0 1 0 -6 0zM700.15 69.79 a3 3 0 1 0 6 0 a3 3 0 1 0 -6 0zM679.37 57.79 a3 3 0 1 0 6 0 a3 3 0 1 0 -6 0zM700.15 237.79 a3 3 0 1 0 6 0 a3 3 0 1 0 -6 0zM720.94 249.79 a3 3 0 1 0 6 0 a3 3 0 1 0 -6 0zM720.94 273.79 a3 3 0 1 0 6 0 a3 3 0 1 0 -6 0zM700.15 285.79 a3 3 0 1 0 6 0 a3 3 0 1 0 -6 0zM679.37 273.79 a3 3 0 1 0 6 0 a3 3 0 1 0 -6 0zM679.37 249.79 a3 3 0 1 0 6 0 a3 3 0 1 0 -6 0zM700.15 381.79 a3 3 0 1 0 6 0 a3 3 0 1 0 -6 0zM720.94 393.79 a3 3 0 1 0 6 0 a3 3 0 1 0 -6 0zM720.94 417.79 a3 3 0 1 0 6 0 a3 3 0 1 0 -6 0zM700.15 429.79 a3 3 0 1 0 6 0 a3 3 0 1 0 -6 0zM679.37 417.79 a3 3 0 1 0 6 0 a3 3 0 1 0 -6 0zM679.37 393.79 a3 3 0 1 0 6 0 a3 3 0 1 0 -6 0zM700.15 525.79 a3 3 0 1 0 6 0 a3 3 0 1 0 -6 0zM720.94 537.79 a3 3 0 1 0 6 0 a3 3 0 1 0 -6 0zM720.94 561.79 a3 3 0 1 0 6 0 a3 3 0 1 0 -6 0zM700.15 573.79 a3 3 0 1 0 6 0 a3 3 0 1 0 -6 0zM679.37 561.79 a3 3 0 1 0 6 0 a3 3 0 1 0 -6 0zM679.37 537.79 a3 3 0 1 0 6 0 a3 3 0 1 0 -6 0zM720.94 -14.21 a3 3 0 1 0 6 0 a3 3 0 1 0 -6 0zM741.72 -2.21 a3 3 0 1 0 6 0 a3 3 0 1 0 -6 0zM741.72 21.79 a3 3 0 1 0 6 0 a3 3 0 1 0 -6 0zM741.72 69.79 a3 3 0 1 0 6 0 a3 3 0 1 0 -6 0zM741.72 93.79 a3 3 0 1 0 6 0 a3 3 0 1 0 -6 0zM720.94 105.79 a3 3 0 1 0 6 0 a3 3 0 1 0 -6 0zM700.15 93.79 a3 3 0 1 0 6 0 a3 3 0 1 0 -6 0zM720.94 489.79 a3 3 0 1 0 6 0 a3 3 0 1 0 -6 0zM741.72 501.79 a3 3 0 1 0 6 0 a3 3 0 1 0 -6 0zM741.72 525.79 a3 3 0 1 0 6 0 a3 3 0 1 0 -6 0zM700.15 501.79 a3 3 0 1 0 6 0 a3 3 0 1 0 -6 0zM783.29 21.79 a3 3 0 1 0 6 0 a3 3 0 1 0 -6 0zM804.08 33.79 a3 3 0 1 0 6 0 a3 3 0 1 0 -6 0zM804.08 57.79 a3 3 0 1 0 6 0 a3 3 0 1 0 -6 0zM783.29 69.79 a3 3 0 1 0 6 0 a3 3 0 1 0 -6 0zM762.51 57.79 a3 3 0 1 0 6 0 a3 3 0 1 0 -6 0zM762.51 33.79 a3 3 0 1 0 6 0 a3 3 0 1 0 -6 0zM783.29 93.79 a3 3 0 1 0 6 0 a3 3 0 1 0 -6 0zM804.08 105.79 a3 3 0 1 0 6 0 a3 3 0 1 0 -6 0zM804.08 129.79 a3 3 0 1 0 6 0 a3 3 0 1 0 -6 0zM783.29 141.79 a3 3 0 1 0 6 0 a3 3 0 1 0 -6 0zM762.51 129.79 a3 3 0 1 0 6 0 a3 3 0 1 0 -6 0zM762.51 105.79 a3 3 0 1 0 6 0 a3 3 0 1 0 -6 0zM824.86 381.79 a3 3 0 1 0 6 0 a3 3 0 1 0 -6 0zM845.65 393.79 a3 3 0 1 0 6 0 a3 3 0 1 0 -6 0zM845.65 417.79 a3 3 0 1 0 6 0 a3 3 0 1 0 -6 0zM824.86 429.79 a3 3 0 1 0 6 0 a3 3 0 1 0 -6 0zM804.08 417.79 a3 3 0 1 0 6 0 a3 3 0 1 0 -6 0zM804.08 393.79 a3 3 0 1 0 6 0 a3 3 0 1 0 -6 0zM824.86 453.79 a3 3 0 1 0 6 0 a3 3 0 1 0 -6 0zM804.08 465.79 a3 3 0 1 0 6 0 a3 3 0 1 0 -6 0zM783.29 453.79 a3 3 0 1 0 6 0 a3 3 0 1 0 -6 0zM783.29 429.79 a3 3 0 1 0 6 0 a3 3 0 1 0 -6 0zM845.65 465.79 a3 3 0 1 0 6 0 a3 3 0 1 0 -6 0zM845.65 489.79 a3 3 0 1 0 6 0 a3 3 0 1 0 -6 0zM824.86 501.79 a3 3 0 1 0 6 0 a3 3 0 1 0 -6 0zM804.08 489.79 a3 3 0 1 0 6 0 a3 3 0 1 0 -6 0zM845.65 57.79 a3 3 0 1 0 6 0 a3 3 0 1 0 -6 0zM866.43 69.79 a3 3 0 1 0 6 0 a3 3 0 1 0 -6 0zM866.43 93.79 a3 3 0 1 0 6 0 a3 3 0 1 0 -6 0zM845.65 105.79 a3 3 0 1 0 6 0 a3 3 0 1 0 -6 0zM824.86 93.79 a3 3 0 1 0 6 0 a3 3 0 1 0 -6 0zM824.86 69.79 a3 3 0 1 0 6 0 a3 3 0 1 0 -6 0zM845.65 129.79 a3 3 0 1 0 6 0 a3 3 0 1 0 -6 0zM866.43 141.79 a3 3 0 1 0 6 0 a3 3 0 1 0 -6 0zM866.43 165.79 a3 3 0 1 0 6 0 a3 3 0 1 0 -6 0zM845.65 177.79 a3 3 0 1 0 6 0 a3 3 0 1 0 -6 0zM824.86 165.79 a3 3 0 1 0 6 0 a3 3 0 1 0 -6 0zM824.86 141.79 a3 3 0 1 0 6 0 a3 3 0 1 0 -6 0zM887.22 201.79 a3 3 0 1 0 6 0 a3 3 0 1 0 -6 0zM908 213.79 a3 3 0 1 0 6 0 a3 3 0 1 0 -6 0zM908 237.79 a3 3 0 1 0 6 0 a3 3 0 1 0 -6 0zM887.22 249.79 a3 3 0 1 0 6 0 a3 3 0 1 0 -6 0zM866.43 237.79 a3 3 0 1 0 6 0 a3 3 0 1 0 -6 0zM866.43 213.79 a3 3 0 1 0 6 0 a3 3 0 1 0 -6 0zM908 309.79 a3 3 0 1 0 6 0 a3 3 0 1 0 -6 0zM928.79 321.79 a3 3 0 1 0 6 0 a3 3 0 1 0 -6 0zM928.79 345.79 a3 3 0 1 0 6 0 a3 3 0 1 0 -6 0zM908 357.79 a3 3 0 1 0 6 0 a3 3 0 1 0 -6 0zM887.22 345.79 a3 3 0 1 0 6 0 a3 3 0 1 0 -6 0zM887.22 321.79 a3 3 0 1 0 6 0 a3 3 0 1 0 -6 0zM887.22 489.79 a3 3 0 1 0 6 0 a3 3 0 1 0 -6 0zM908 501.79 a3 3 0 1 0 6 0 a3 3 0 1 0 -6 0zM908 525.79 a3 3 0 1 0 6 0 a3 3 0 1 0 -6 0zM887.22 537.79 a3 3 0 1 0 6 0 a3 3 0 1 0 -6 0zM866.43 525.79 a3 3 0 1 0 6 0 a3 3 0 1 0 -6 0zM866.43 501.79 a3 3 0 1 0 6 0 a3 3 0 1 0 -6 0zM928.79 537.79 a3 3 0 1 0 6 0 a3 3 0 1 0 -6 0zM928.79 561.79 a3 3 0 1 0 6 0 a3 3 0 1 0 -6 0zM908 573.79 a3 3 0 1 0 6 0 a3 3 0 1 0 -6 0zM887.22 561.79 a3 3 0 1 0 6 0 a3 3 0 1 0 -6 0zM908 597.79 a3 3 0 1 0 6 0 a3 3 0 1 0 -6 0zM887.22 609.79 a3 3 0 1 0 6 0 a3 3 0 1 0 -6 0zM866.43 597.79 a3 3 0 1 0 6 0 a3 3 0 1 0 -6 0zM866.43 573.79 a3 3 0 1 0 6 0 a3 3 0 1 0 -6 0zM928.79 -14.21 a3 3 0 1 0 6 0 a3 3 0 1 0 -6 0zM949.57 -2.21 a3 3 0 1 0 6 0 a3 3 0 1 0 -6 0zM949.57 21.79 a3 3 0 1 0 6 0 a3 3 0 1 0 -6 0zM928.79 33.79 a3 3 0 1 0 6 0 a3 3 0 1 0 -6 0zM908 21.79 a3 3 0 1 0 6 0 a3 3 0 1 0 -6 0zM908 -2.21 a3 3 0 1 0 6 0 a3 3 0 1 0 -6 0zM949.57 357.79 a3 3 0 1 0 6 0 a3 3 0 1 0 -6 0zM949.57 381.79 a3 3 0 1 0 6 0 a3 3 0 1 0 -6 0zM928.79 393.79 a3 3 0 1 0 6 0 a3 3 0 1 0 -6 0zM908 381.79 a3 3 0 1 0 6 0 a3 3 0 1 0 -6 0zM970.36 -14.21 a3 3 0 1 0 6 0 a3 3 0 1 0 -6 0zM991.14 -2.21 a3 3 0 1 0 6 0 a3 3 0 1 0 -6 0zM991.14 21.79 a3 3 0 1 0 6 0 a3 3 0 1 0 -6 0zM970.36 33.79 a3 3 0 1 0 6 0 a3 3 0 1 0 -6 0zM1011.93 33.79 a3 3 0 1 0 6 0 a3 3 0 1 0 -6 0zM1011.93 57.79 a3 3 0 1 0 6 0 a3 3 0 1 0 -6 0zM991.14 69.79 a3 3 0 1 0 6 0 a3 3 0 1 0 -6 0zM970.36 57.79 a3 3 0 1 0 6 0 a3 3 0 1 0 -6 0zM991.14 165.79 a3 3 0 1 0 6 0 a3 3 0 1 0 -6 0zM1011.93 177.79 a3 3 0 1 0 6 0 a3 3 0 1 0 -6 0zM1011.93 201.79 a3 3 0 1 0 6 0 a3 3 0 1 0 -6 0zM991.14 213.79 a3 3 0 1 0 6 0 a3 3 0 1 0 -6 0zM970.36 201.79 a3 3 0 1 0 6 0 a3 3 0 1 0 -6 0zM970.36 177.79 a3 3 0 1 0 6 0 a3 3 0 1 0 -6 0zM991.14 237.79 a3 3 0 1 0 6 0 a3 3 0 1 0 -6 0zM1011.93 249.79 a3 3 0 1 0 6 0 a3 3 0 1 0 -6 0zM1011.93 273.79 a3 3 0 1 0 6 0 a3 3 0 1 0 -6 0zM991.14 285.79 a3 3 0 1 0 6 0 a3 3 0 1 0 -6 0zM970.36 273.79 a3 3 0 1 0 6 0 a3 3 0 1 0 -6 0zM970.36 249.79 a3 3 0 1 0 6 0 a3 3 0 1 0 -6 0zM970.36 417.79 a3 3 0 1 0 6 0 a3 3 0 1 0 -6 0zM991.14 429.79 a3 3 0 1 0 6 0 a3 3 0 1 0 -6 0zM991.14 453.79 a3 3 0 1 0 6 0 a3 3 0 1 0 -6 0zM970.36 465.79 a3 3 0 1 0 6 0 a3 3 0 1 0 -6 0zM949.57 453.79 a3 3 0 1 0 6 0 a3 3 0 1 0 -6 0zM949.57 429.79 a3 3 0 1 0 6 0 a3 3 0 1 0 -6 0zM970.36 561.79 a3 3 0 1 0 6 0 a3 3 0 1 0 -6 0zM991.14 573.79 a3 3 0 1 0 6 0 a3 3 0 1 0 -6 0zM991.14 597.79 a3 3 0 1 0 6 0 a3 3 0 1 0 -6 0zM970.36 609.79 a3 3 0 1 0 6 0 a3 3 0 1 0 -6 0zM949.57 597.79 a3 3 0 1 0 6 0 a3 3 0 1 0 -6 0zM949.57 573.79 a3 3 0 1 0 6 0 a3 3 0 1 0 -6 0zM1032.71 69.79 a3 3 0 1 0 6 0 a3 3 0 1 0 -6 0zM1032.71 93.79 a3 3 0 1 0 6 0 a3 3 0 1 0 -6 0zM1011.93 105.79 a3 3 0 1 0 6 0 a3 3 0 1 0 -6 0zM991.14 93.79 a3 3 0 1 0 6 0 a3 3 0 1 0 -6 0zM1032.71 309.79 a3 3 0 1 0 6 0 a3 3 0 1 0 -6 0zM1053.5 321.79 a3 3 0 1 0 6 0 a3 3 0 1 0 -6 0zM1053.5 345.79 a3 3 0 1 0 6 0 a3 3 0 1 0 -6 0zM1032.71 357.79 a3 3 0 1 0 6 0 a3 3 0 1 0 -6 0zM1011.93 345.79 a3 3 0 1 0 6 0 a3 3 0 1 0 -6 0zM1011.93 321.79 a3 3 0 1 0 6 0 a3 3 0 1 0 -6 0zM1032.71 381.79 a3 3 0 1 0 6 0 a3 3 0 1 0 -6 0zM1053.5 393.79 a3 3 0 1 0 6 0 a3 3 0 1 0 -6 0zM1053.5 417.79 a3 3 0 1 0 6 0 a3 3 0 1 0 -6 0zM1032.71 429.79 a3 3 0 1 0 6 0 a3 3 0 1 0 -6 0zM1011.93 417.79 a3 3 0 1 0 6 0 a3 3 0 1 0 -6 0zM1011.93 393.79 a3 3 0 1 0 6 0 a3 3 0 1 0 -6 0zM1032.71 453.79 a3 3 0 1 0 6 0 a3 3 0 1 0 -6 0zM1011.93 465.79 a3 3 0 1 0 6 0 a3 3 0 1 0 -6 0zM1011.93 489.79 a3 3 0 1 0 6 0 a3 3 0 1 0 -6 0zM1032.71 501.79 a3 3 0 1 0 6 0 a3 3 0 1 0 -6 0zM1032.71 525.79 a3 3 0 1 0 6 0 a3 3 0 1 0 -6 0zM1011.93 537.79 a3 3 0 1 0 6 0 a3 3 0 1 0 -6 0zM991.14 525.79 a3 3 0 1 0 6 0 a3 3 0 1 0 -6 0zM991.14 501.79 a3 3 0 1 0 6 0 a3 3 0 1 0 -6 0zM1053.5 537.79 a3 3 0 1 0 6 0 a3 3 0 1 0 -6 0zM1053.5 561.79 a3 3 0 1 0 6 0 a3 3 0 1 0 -6 0zM1032.71 573.79 a3 3 0 1 0 6 0 a3 3 0 1 0 -6 0zM1011.93 561.79 a3 3 0 1 0 6 0 a3 3 0 1 0 -6 0zM1074.29 93.79 a3 3 0 1 0 6 0 a3 3 0 1 0 -6 0zM1095.07 105.79 a3 3 0 1 0 6 0 a3 3 0 1 0 -6 0zM1095.07 129.79 a3 3 0 1 0 6 0 a3 3 0 1 0 -6 0zM1074.29 141.79 a3 3 0 1 0 6 0 a3 3 0 1 0 -6 0zM1053.5 129.79 a3 3 0 1 0 6 0 a3 3 0 1 0 -6 0zM1053.5 105.79 a3 3 0 1 0 6 0 a3 3 0 1 0 -6 0zM1074.29 165.79 a3 3 0 1 0 6 0 a3 3 0 1 0 -6 0zM1053.5 177.79 a3 3 0 1 0 6 0 a3 3 0 1 0 -6 0zM1032.71 165.79 a3 3 0 1 0 6 0 a3 3 0 1 0 -6 0zM1032.71 141.79 a3 3 0 1 0 6 0 a3 3 0 1 0 -6 0zM1074.29 357.79 a3 3 0 1 0 6 0 a3 3 0 1 0 -6 0zM1074.29 381.79 a3 3 0 1 0 6 0 a3 3 0 1 0 -6 0zM1095.07 393.79 a3 3 0 1 0 6 0 a3 3 0 1 0 -6 0zM1095.07 417.79 a3 3 0 1 0 6 0 a3 3 0 1 0 -6 0zM1074.29 429.79 a3 3 0 1 0 6 0 a3 3 0 1 0 -6 0zM1074.29 525.79 a3 3 0 1 0 6 0 a3 3 0 1 0 -6 0zM1095.07 537.79 a3 3 0 1 0 6 0 a3 3 0 1 0 -6 0zM1095.07 561.79 a3 3 0 1 0 6 0 a3 3 0 1 0 -6 0zM1074.29 573.79 a3 3 0 1 0 6 0 a3 3 0 1 0 -6 0zM1115.86 21.79 a3 3 0 1 0 6 0 a3 3 0 1 0 -6 0zM1136.64 33.79 a3 3 0 1 0 6 0 a3 3 0 1 0 -6 0zM1136.64 57.79 a3 3 0 1 0 6 0 a3 3 0 1 0 -6 0zM1115.86 69.79 a3 3 0 1 0 6 0 a3 3 0 1 0 -6 0zM1095.07 57.79 a3 3 0 1 0 6 0 a3 3 0 1 0 -6 0zM1095.07 33.79 a3 3 0 1 0 6 0 a3 3 0 1 0 -6 0zM1115.86 141.79 a3 3 0 1 0 6 0 a3 3 0 1 0 -6 0zM1115.86 165.79 a3 3 0 1 0 6 0 a3 3 0 1 0 -6 0zM1095.07 177.79 a3 3 0 1 0 6 0 a3 3 0 1 0 -6 0zM1115.86 237.79 a3 3 0 1 0 6 0 a3 3 0 1 0 -6 0zM1136.64 249.79 a3 3 0 1 0 6 0 a3 3 0 1 0 -6 0zM1136.64 273.79 a3 3 0 1 0 6 0 a3 3 0 1 0 -6 0zM1115.86 285.79 a3 3 0 1 0 6 0 a3 3 0 1 0 -6 0zM1095.07 273.79 a3 3 0 1 0 6 0 a3 3 0 1 0 -6 0zM1095.07 249.79 a3 3 0 1 0 6 0 a3 3 0 1 0 -6 0zM1115.86 309.79 a3 3 0 1 0 6 0 a3 3 0 1 0 -6 0zM1136.64 321.79 a3 3 0 1 0 6 0 a3 3 0 1 0 -6 0zM1136.64 345.79 a3 3 0 1 0 6 0 a3 3 0 1 0 -6 0zM1115.86 357.79 a3 3 0 1 0 6 0 a3 3 0 1 0 -6 0zM1095.07 345.79 a3 3 0 1 0 6 0 a3 3 0 1 0 -6 0zM1095.07 321.79 a3 3 0 1 0 6 0 a3 3 0 1 0 -6 0zM1095.07 489.79 a3 3 0 1 0 6 0 a3 3 0 1 0 -6 0zM1115.86 501.79 a3 3 0 1 0 6 0 a3 3 0 1 0 -6 0zM1115.86 525.79 a3 3 0 1 0 6 0 a3 3 0 1 0 -6 0zM1074.29 501.79 a3 3 0 1 0 6 0 a3 3 0 1 0 -6 0zM1157.43 21.79 a3 3 0 1 0 6 0 a3 3 0 1 0 -6 0zM1178.21 33.79 a3 3 0 1 0 6 0 a3 3 0 1 0 -6 0zM1178.21 57.79 a3 3 0 1 0 6 0 a3 3 0 1 0 -6 0zM1157.43 69.79 a3 3 0 1 0 6 0 a3 3 0 1 0 -6 0zM1136.64 561.79 a3 3 0 1 0 6 0 a3 3 0 1 0 -6 0zM1157.43 573.79 a3 3 0 1 0 6 0 a3 3 0 1 0 -6 0zM1157.43 597.79 a3 3 0 1 0 6 0 a3 3 0 1 0 -6 0zM1136.64 609.79 a3 3 0 1 0 6 0 a3 3 0 1 0 -6 0zM1115.86 597.79 a3 3 0 1 0 6 0 a3 3 0 1 0 -6 0zM1115.86 573.79 a3 3 0 1 0 6 0 a3 3 0 1 0 -6 0zM1178.21 -14.21 a3 3 0 1 0 6 0 a3 3 0 1 0 -6 0zM1199 -2.21 a3 3 0 1 0 6 0 a3 3 0 1 0 -6 0zM1199 21.79 a3 3 0 1 0 6 0 a3 3 0 1 0 -6 0zM1157.43 -2.21 a3 3 0 1 0 6 0 a3 3 0 1 0 -6 0zM1219.78 129.79 a3 3 0 1 0 6 0 a3 3 0 1 0 -6 0zM1240.57 141.79 a3 3 0 1 0 6 0 a3 3 0 1 0 -6 0zM1240.57 165.79 a3 3 0 1 0 6 0 a3 3 0 1 0 -6 0zM1219.78 177.79 a3 3 0 1 0 6 0 a3 3 0 1 0 -6 0zM1199 165.79 a3 3 0 1 0 6 0 a3 3 0 1 0 -6 0zM1199 141.79 a3 3 0 1 0 6 0 a3 3 0 1 0 -6 0zM1219.78 489.79 a3 3 0 1 0 6 0 a3 3 0 1 0 -6 0zM1240.57 501.79 a3 3 0 1 0 6 0 a3 3 0 1 0 -6 0zM1240.57 525.79 a3 3 0 1 0 6 0 a3 3 0 1 0 -6 0zM1219.78 537.79 a3 3 0 1 0 6 0 a3 3 0 1 0 -6 0zM1199 525.79 a3 3 0 1 0 6 0 a3 3 0 1 0 -6 0zM1199 501.79 a3 3 0 1 0 6 0 a3 3 0 1 0 -6 0zM1261.35 537.79 a3 3 0 1 0 6 0 a3 3 0 1 0 -6 0zM1261.35 561.79 a3 3 0 1 0 6 0 a3 3 0 1 0 -6 0zM1240.57 573.79 a3 3 0 1 0 6 0 a3 3 0 1 0 -6 0zM1219.78 561.79 a3 3 0 1 0 6 0 a3 3 0 1 0 -6 0zM1282.14 525.79 a3 3 0 1 0 6 0 a3 3 0 1 0 -6 0zM1302.92 537.79 a3 3 0 1 0 6 0 a3 3 0 1 0 -6 0zM1302.92 561.79 a3 3 0 1 0 6 0 a3 3 0 1 0 -6 0zM1282.14 573.79 a3 3 0 1 0 6 0 a3 3 0 1 0 -6 0zM1323.71 21.79 a3 3 0 1 0 6 0 a3 3 0 1 0 -6 0zM1344.49 33.79 a3 3 0 1 0 6 0 a3 3 0 1 0 -6 0zM1344.49 57.79 a3 3 0 1 0 6 0 a3 3 0 1 0 -6 0zM1323.71 69.79 a3 3 0 1 0 6 0 a3 3 0 1 0 -6 0zM1302.92 57.79 a3 3 0 1 0 6 0 a3 3 0 1 0 -6 0zM1302.92 33.79 a3 3 0 1 0 6 0 a3 3 0 1 0 -6 0zM1323.71 93.79 a3 3 0 1 0 6 0 a3 3 0 1 0 -6 0zM1302.92 105.79 a3 3 0 1 0 6 0 a3 3 0 1 0 -6 0zM1282.14 93.79 a3 3 0 1 0 6 0 a3 3 0 1 0 -6 0zM1282.14 69.79 a3 3 0 1 0 6 0 a3 3 0 1 0 -6 0zM1344.49 105.79 a3 3 0 1 0 6 0 a3 3 0 1 0 -6 0zM1344.49 129.79 a3 3 0 1 0 6 0 a3 3 0 1 0 -6 0zM1323.71 141.79 a3 3 0 1 0 6 0 a3 3 0 1 0 -6 0zM1302.92 129.79 a3 3 0 1 0 6 0 a3 3 0 1 0 -6 0zM1323.71 165.79 a3 3 0 1 0 6 0 a3 3 0 1 0 -6 0zM1302.92 177.79 a3 3 0 1 0 6 0 a3 3 0 1 0 -6 0zM1282.14 165.79 a3 3 0 1 0 6 0 a3 3 0 1 0 -6 0zM1282.14 141.79 a3 3 0 1 0 6 0 a3 3 0 1 0 -6 0zM1302.92 201.79 a3 3 0 1 0 6 0 a3 3 0 1 0 -6 0zM1323.71 213.79 a3 3 0 1 0 6 0 a3 3 0 1 0 -6 0zM1323.71 237.79 a3 3 0 1 0 6 0 a3 3 0 1 0 -6 0zM1302.92 249.79 a3 3 0 1 0 6 0 a3 3 0 1 0 -6 0zM1282.14 237.79 a3 3 0 1 0 6 0 a3 3 0 1 0 -6 0zM1282.14 213.79 a3 3 0 1 0 6 0 a3 3 0 1 0 -6 0zM1344.49 249.79 a3 3 0 1 0 6 0 a3 3 0 1 0 -6 0zM1344.49 273.79 a3 3 0 1 0 6 0 a3 3 0 1 0 -6 0zM1323.71 285.79 a3 3 0 1 0 6 0 a3 3 0 1 0 -6 0zM1302.92 273.79 a3 3 0 1 0 6 0 a3 3 0 1 0 -6 0zM1323.71 453.79 a3 3 0 1 0 6 0 a3 3 0 1 0 -6 0zM1344.49 465.79 a3 3 0 1 0 6 0 a3 3 0 1 0 -6 0zM1344.49 489.79 a3 3 0 1 0 6 0 a3 3 0 1 0 -6 0zM1323.71 501.79 a3 3 0 1 0 6 0 a3 3 0 1 0 -6 0zM1302.92 489.79 a3 3 0 1 0 6 0 a3 3 0 1 0 -6 0zM1302.92 465.79 a3 3 0 1 0 6 0 a3 3 0 1 0 -6 0zM1323.71 525.79 a3 3 0 1 0 6 0 a3 3 0 1 0 -6 0zM1344.49 537.79 a3 3 0 1 0 6 0 a3 3 0 1 0 -6 0zM1344.49 561.79 a3 3 0 1 0 6 0 a3 3 0 1 0 -6 0zM1323.71 573.79 a3 3 0 1 0 6 0 a3 3 0 1 0 -6 0zM1365.28 21.79 a3 3 0 1 0 6 0 a3 3 0 1 0 -6 0zM1386.06 33.79 a3 3 0 1 0 6 0 a3 3 0 1 0 -6 0zM1386.06 57.79 a3 3 0 1 0 6 0 a3 3 0 1 0 -6 0zM1365.28 69.79 a3 3 0 1 0 6 0 a3 3 0 1 0 -6 0zM1365.28 165.79 a3 3 0 1 0 6 0 a3 3 0 1 0 -6 0zM1386.06 177.79 a3 3 0 1 0 6 0 a3 3 0 1 0 -6 0zM1386.06 201.79 a3 3 0 1 0 6 0 a3 3 0 1 0 -6 0zM1365.28 213.79 a3 3 0 1 0 6 0 a3 3 0 1 0 -6 0zM1344.49 201.79 a3 3 0 1 0 6 0 a3 3 0 1 0 -6 0zM1344.49 177.79 a3 3 0 1 0 6 0 a3 3 0 1 0 -6 0zM1365.28 237.79 a3 3 0 1 0 6 0 a3 3 0 1 0 -6 0zM1365.28 285.79 a3 3 0 1 0 6 0 a3 3 0 1 0 -6 0zM1365.28 309.79 a3 3 0 1 0 6 0 a3 3 0 1 0 -6 0zM1344.49 321.79 a3 3 0 1 0 6 0 a3 3 0 1 0 -6 0zM1323.71 309.79 a3 3 0 1 0 6 0 a3 3 0 1 0 -6 0zM1344.49 417.79 a3 3 0 1 0 6 0 a3 3 0 1 0 -6 0zM1365.28 429.79 a3 3 0 1 0 6 0 a3 3 0 1 0 -6 0zM1365.28 453.79 a3 3 0 1 0 6 0 a3 3 0 1 0 -6 0zM1323.71 429.79 a3 3 0 1 0 6 0 a3 3 0 1 0 -6 0zM1406.85 69.79 a3 3 0 1 0 6 0 a3 3 0 1 0 -6 0zM1406.85 93.79 a3 3 0 1 0 6 0 a3 3 0 1 0 -6 0zM1386.06 105.79 a3 3 0 1 0 6 0 a3 3 0 1 0 -6 0zM1365.28 93.79 a3 3 0 1 0 6 0 a3 3 0 1 0 -6 0zM1406.85 165.79 a3 3 0 1 0 6 0 a3 3 0 1 0 -6 0zM1427.63 177.79 a3 3 0 1 0 6 0 a3 3 0 1 0 -6 0zM1427.63 201.79 a3 3 0 1 0 6 0 a3 3 0 1 0 -6 0zM1406.85 213.79 a3 3 0 1 0 6 0 a3 3 0 1 0 -6 0zM1427.63 57.79 a3 3 0 1 0 6 0 a3 3 0 1 0 -6 0zM1448.42 69.79 a3 3 0 1 0 6 0 a3 3 0 1 0 -6 0zM1448.42 93.79 a3 3 0 1 0 6 0 a3 3 0 1 0 -6 0zM1427.63 105.79 a3 3 0 1 0 6 0 a3 3 0 1 0 -6 0zM1448.42 237.79 a3 3 0 1 0 6 0 a3 3 0 1 0 -6 0zM1469.2 249.79 a3 3 0 1 0 6 0 a3 3 0 1 0 -6 0zM1469.2 273.79 a3 3 0 1 0 6 0 a3 3 0 1 0 -6 0zM1448.42 285.79 a3 3 0 1 0 6 0 a3 3 0 1 0 -6 0zM1427.63 273.79 a3 3 0 1 0 6 0 a3 3 0 1 0 -6 0zM1427.63 249.79 a3 3 0 1 0 6 0 a3 3 0 1 0 -6 0zM1448.42 381.79 a3 3 0 1 0 6 0 a3 3 0 1 0 -6 0zM1469.2 393.79 a3 3 0 1 0 6 0 a3 3 0 1 0 -6 0zM1469.2 417.79 a3 3 0 1 0 6 0 a3 3 0 1 0 -6 0zM1448.42 429.79 a3 3 0 1 0 6 0 a3 3 0 1 0 -6 0zM1427.63 417.79 a3 3 0 1 0 6 0 a3 3 0 1 0 -6 0zM1427.63 393.79 a3 3 0 1 0 6 0 a3 3 0 1 0 -6 0zM1448.42 453.79 a3 3 0 1 0 6 0 a3 3 0 1 0 -6 0zM1427.63 465.79 a3 3 0 1 0 6 0 a3 3 0 1 0 -6 0zM1406.85 453.79 a3 3 0 1 0 6 0 a3 3 0 1 0 -6 0zM1406.85 429.79 a3 3 0 1 0 6 0 a3 3 0 1 0 -6 0zM1469.2 465.79 a3 3 0 1 0 6 0 a3 3 0 1 0 -6 0zM1469.2 489.79 a3 3 0 1 0 6 0 a3 3 0 1 0 -6 0zM1448.42 501.79 a3 3 0 1 0 6 0 a3 3 0 1 0 -6 0zM1427.63 489.79 a3 3 0 1 0 6 0 a3 3 0 1 0 -6 0zM1448.42 525.79 a3 3 0 1 0 6 0 a3 3 0 1 0 -6 0zM1469.2 537.79 a3 3 0 1 0 6 0 a3 3 0 1 0 -6 0zM1469.2 561.79 a3 3 0 1 0 6 0 a3 3 0 1 0 -6 0zM1448.42 573.79 a3 3 0 1 0 6 0 a3 3 0 1 0 -6 0zM1427.63 561.79 a3 3 0 1 0 6 0 a3 3 0 1 0 -6 0zM1427.63 537.79 a3 3 0 1 0 6 0 a3 3 0 1 0 -6 0zM1448.42 597.79 a3 3 0 1 0 6 0 a3 3 0 1 0 -6 0zM1427.63 609.79 a3 3 0 1 0 6 0 a3 3 0 1 0 -6 0zM1406.85 597.79 a3 3 0 1 0 6 0 a3 3 0 1 0 -6 0zM1406.85 573.79 a3 3 0 1 0 6 0 a3 3 0 1 0 -6 0z" fill="rgba(6, 80, 156, 0.93)"></path></g><defs><mask id="SvgjsMask1165"><rect width="1440" height="560" fill="#ffffff"></rect></mask></defs></svg>